# Blender v2.83.16 OBJ File: ''
# www.blender.org
mtllib DONUT.mtl
o Donut_Torus
v 1.397894 0.000000 -0.000000
v 1.293757 0.311865 -0.000000
v 1.025453 0.497749 -0.000000
v 0.704229 0.487954 0.000000
v 0.454656 0.296006 0.000000
v 0.362106 0.000000 0.000000
v 0.454656 -0.296006 0.000000
v 0.704229 -0.487954 0.000000
v 1.025453 -0.497749 -0.000000
v 1.293757 -0.311865 -0.000000
v 1.130920 0.000000 -0.821662
v 1.046672 0.311865 -0.760451
v 0.829609 0.497749 -0.602746
v 0.569733 0.487954 -0.413935
v 0.367825 0.296006 -0.267240
v 0.292950 0.000000 -0.212840
v 0.367825 -0.296006 -0.267240
v 0.569733 -0.487954 -0.413935
v 0.829609 -0.497749 -0.602746
v 1.046672 -0.311865 -0.760451
v 0.431973 0.000000 -1.329476
v 0.399793 0.311865 -1.230436
v 0.316882 0.497749 -0.975263
v 0.217619 0.487954 -0.669762
v 0.140497 0.296006 -0.432404
v 0.111897 0.000000 -0.344383
v 0.140497 -0.296006 -0.432404
v 0.217619 -0.487954 -0.669762
v 0.316882 -0.497749 -0.975263
v 0.399793 -0.311865 -1.230436
v -0.431973 0.000000 -1.329476
v -0.399793 0.311865 -1.230436
v -0.316882 0.497749 -0.975263
v -0.217619 0.487954 -0.669762
v -0.140497 0.296006 -0.432404
v -0.111897 0.000000 -0.344383
v -0.140497 -0.296006 -0.432404
v -0.217619 -0.487954 -0.669762
v -0.316882 -0.497749 -0.975263
v -0.399793 -0.311865 -1.230436
v -1.130920 0.000000 -0.821661
v -1.046672 0.311865 -0.760451
v -0.829609 0.497749 -0.602746
v -0.569733 0.487954 -0.413935
v -0.367825 0.296006 -0.267240
v -0.292950 0.000000 -0.212840
v -0.367825 -0.296006 -0.267240
v -0.569733 -0.487954 -0.413935
v -0.829609 -0.497749 -0.602746
v -1.046672 -0.311865 -0.760451
v -1.397894 0.000000 -0.000000
v -1.293757 0.311865 -0.000000
v -1.025453 0.497749 -0.000000
v -0.704229 0.487954 -0.000000
v -0.454656 0.296006 -0.000000
v -0.362106 0.000000 -0.000000
v -0.454656 -0.296006 -0.000000
v -0.704229 -0.487954 -0.000000
v -1.025453 -0.497749 -0.000000
v -1.293757 -0.311865 -0.000000
v -1.130920 0.000000 0.821661
v -1.046672 0.311865 0.760451
v -0.829609 0.497749 0.602746
v -0.569733 0.487954 0.413935
v -0.367825 0.296006 0.267240
v -0.292950 0.000000 0.212840
v -0.367825 -0.296006 0.267240
v -0.569733 -0.487954 0.413935
v -0.829609 -0.497749 0.602746
v -1.046672 -0.311865 0.760451
v -0.431973 0.000000 1.329476
v -0.399793 0.311865 1.230436
v -0.316882 0.497749 0.975263
v -0.217619 0.487954 0.669762
v -0.140497 0.296006 0.432404
v -0.111897 0.000000 0.344383
v -0.140497 -0.296006 0.432404
v -0.217619 -0.487954 0.669762
v -0.316882 -0.497749 0.975263
v -0.399793 -0.311865 1.230436
v 0.431973 0.000000 1.329476
v 0.399793 0.311865 1.230436
v 0.316882 0.497749 0.975263
v 0.217619 0.487954 0.669762
v 0.140497 0.296006 0.432404
v 0.111897 0.000000 0.344383
v 0.140497 -0.296006 0.432404
v 0.217619 -0.487954 0.669762
v 0.316882 -0.497749 0.975263
v 0.399793 -0.311865 1.230436
v 1.130920 0.000000 0.821662
v 1.046671 0.311865 0.760452
v 0.829608 0.497749 0.602746
v 0.569733 0.487954 0.413936
v 0.367825 0.296006 0.267241
v 0.292950 0.000000 0.212841
v 0.367825 -0.296006 0.267241
v 0.569733 -0.487954 0.413936
v 0.829608 -0.497749 0.602746
v 1.046671 -0.311865 0.760452
vt 0.700000 0.100000
vt 0.600000 0.200000
vt 0.600000 0.100000
vt 0.700000 0.200000
vt 0.600000 0.300000
vt 0.700000 0.300000
vt 0.600000 0.400000
vt 0.700000 0.400000
vt 0.600000 0.500000
vt 0.700000 0.500000
vt 0.600000 0.600000
vt 0.800000 0.100000
vt 0.800000 0.200000
vt 0.800000 0.300000
vt 0.800000 0.500000
vt 0.800000 0.600000
vt 0.700000 0.600000
vt 0.900000 0.100000
vt 0.900000 0.200000
vt 0.900000 0.300000
vt 0.800000 0.400000
vt 0.900000 0.500000
vt 1.000000 0.100000
vt 1.000000 0.200000
vt 1.000000 0.400000
vt 0.900000 0.400000
vt 1.000000 0.500000
vt 0.900000 0.600000
vt 0.100000 0.100000
vt -0.000000 0.200000
vt -0.000000 0.100000
vt 0.100000 0.200000
vt -0.000000 0.300000
vt 0.100000 0.300000
vt -0.000000 0.400000
vt 0.100000 0.400000
vt -0.000000 0.500000
vt 0.100000 0.500000
vt -0.000000 0.600000
vt 0.200000 0.100000
vt 0.200000 0.200000
vt 0.200000 0.300000
vt 0.200000 0.400000
vt 0.200000 0.600000
vt 0.100000 0.600000
vt 0.300000 0.100000
vt 0.300000 0.200000
vt 0.300000 0.300000
vt 0.300000 0.400000
vt 0.200000 0.500000
vt 0.300000 0.500000
vt 0.400000 0.100000
vt 0.400000 0.200000
vt 0.400000 0.300000
vt 0.400000 0.400000
vt 0.400000 0.500000
vt 0.300000 0.600000
vt 0.500000 0.100000
vt 0.500000 0.200000
vt 0.500000 0.300000
vt 0.500000 0.400000
vt 0.500000 0.500000
vt 0.400000 0.600000
vt 0.500000 0.600000
vt 1.000000 0.300000
vt 1.000000 0.600000
vt 0.474278 0.000098
vt 0.250154 0.185934
vt 0.181437 0.095553
vt 0.476840 0.113673
vt 0.308018 0.263943
vt 0.477819 0.210906
vt 0.359754 0.337522
vt 0.475109 0.384179
vt 0.407807 0.405254
vt 0.447167 0.454147
vt 0.768160 0.094563
vt 0.703312 0.188269
vt 0.646798 0.267688
vt 0.476335 0.300983
vt 0.592497 0.339731
vt 0.542421 0.406052
vt 0.478200 0.445780
vt 0.843230 0.382580
vt 0.750598 0.413594
vt 0.584269 0.464045
vt 0.507461 0.456754
vt 0.951160 0.655866
vt 0.951160 0.344904
vt 0.841683 0.622599
vt 0.663106 0.563557
vt 0.664160 0.439945
vt 0.584056 0.536299
vt 0.524661 0.484147
vt 0.767511 0.906622
vt 0.698874 0.815242
vt 0.748535 0.593081
vt 0.589481 0.662514
vt 0.541420 0.594271
vt 0.522973 0.517905
vt 0.472232 0.999903
vt 0.470608 0.886125
vt 0.641110 0.736583
vt 0.470245 0.788828
vt 0.472113 0.698737
vt 0.473340 0.615512
vt 0.502273 0.544500
vt 0.179794 0.902373
vt 0.245073 0.809545
vt 0.301853 0.730706
vt 0.356364 0.658958
vt 0.406598 0.592409
vt 0.470356 0.553037
vt 0.107298 0.615589
vt 0.199468 0.585010
vt 0.285671 0.558885
vt 0.365387 0.534609
vt 0.441081 0.540812
vt 0.000597 0.344766
vt 0.000098 0.652565
vt 0.109155 0.377587
vt 0.201729 0.406773
vt 0.286799 0.435984
vt 0.365520 0.462753
vt 0.424442 0.514310
vt 0.426237 0.480924
vn -0.9116 -0.2850 0.2962
vn -0.5980 -0.7776 0.1943
vn -0.0305 -0.9995 0.0099
vn 0.5600 -0.8083 -0.1819
vn 0.9064 -0.3027 -0.2945
vn -0.5634 -0.2850 0.7755
vn -0.3696 -0.7776 0.5087
vn -0.0188 -0.9995 0.0259
vn 0.3461 -0.8083 -0.4763
vn 0.5602 -0.3027 -0.7711
vn 0.0000 -0.2850 0.9585
vn -0.0000 -0.7776 0.6288
vn -0.0000 -0.9995 0.0320
vn 0.0000 -0.8083 -0.5888
vn 0.0000 -0.3027 -0.9531
vn 0.5634 -0.2850 0.7755
vn 0.3696 -0.7776 0.5087
vn 0.0188 -0.9995 0.0259
vn -0.3461 -0.8083 -0.4763
vn -0.5602 -0.3027 -0.7711
vn 0.9116 -0.2850 0.2962
vn 0.5980 -0.7776 0.1943
vn 0.0305 -0.9995 0.0099
vn -0.5600 -0.8083 -0.1819
vn -0.9064 -0.3027 -0.2945
vn 0.9116 -0.2850 -0.2962
vn 0.5980 -0.7776 -0.1943
vn 0.0305 -0.9995 -0.0099
vn -0.5600 -0.8083 0.1819
vn -0.9064 -0.3027 0.2945
vn 0.5634 -0.2850 -0.7755
vn 0.3696 -0.7776 -0.5087
vn 0.0188 -0.9995 -0.0259
vn -0.3461 -0.8083 0.4763
vn -0.5602 -0.3027 0.7711
vn 0.0000 -0.2850 -0.9585
vn 0.0000 -0.7776 -0.6288
vn 0.0000 -0.9995 -0.0320
vn 0.0000 -0.8083 0.5888
vn 0.0000 -0.3027 0.9531
vn -0.5634 -0.2850 -0.7755
vn -0.3696 -0.7776 -0.5087
vn -0.0188 -0.9995 -0.0259
vn 0.3461 -0.8083 0.4763
vn 0.5602 -0.3027 0.7711
vn -0.9116 -0.2850 -0.2962
vn -0.5980 -0.7776 -0.1943
vn -0.0305 -0.9995 -0.0099
vn 0.5600 -0.8083 0.1819
vn 0.9064 -0.3027 0.2945
vn 0.9064 0.3027 -0.2945
vn 0.5600 0.8083 -0.1819
vn -0.0305 0.9995 0.0099
vn -0.5980 0.7776 0.1943
vn -0.9116 0.2850 0.2962
vn 0.5602 0.3027 -0.7711
vn 0.3461 0.8083 -0.4763
vn -0.0188 0.9995 0.0259
vn -0.3696 0.7776 0.5087
vn -0.5634 0.2850 0.7755
vn -0.0000 0.3027 -0.9531
vn -0.0000 0.8083 -0.5888
vn 0.0000 0.9995 0.0320
vn -0.0000 0.7776 0.6288
vn 0.0000 0.2850 0.9585
vn -0.5602 0.3027 -0.7711
vn -0.3461 0.8083 -0.4763
vn 0.0188 0.9995 0.0259
vn 0.3696 0.7776 0.5087
vn 0.5634 0.2850 0.7755
vn -0.9064 0.3027 -0.2945
vn -0.5600 0.8083 -0.1819
vn 0.0305 0.9995 0.0099
vn 0.5980 0.7776 0.1943
vn 0.9116 0.2850 0.2962
vn -0.9064 0.3027 0.2945
vn -0.5600 0.8083 0.1819
vn 0.0305 0.9995 -0.0099
vn 0.5980 0.7776 -0.1943
vn 0.9116 0.2850 -0.2962
vn -0.5602 0.3027 0.7711
vn -0.3461 0.8083 0.4763
vn 0.0188 0.9995 -0.0259
vn 0.3696 0.7776 -0.5087
vn 0.5634 0.2850 -0.7755
vn -0.0000 0.3027 0.9531
vn 0.0000 0.8083 0.5888
vn 0.0000 0.9995 -0.0320
vn 0.0000 0.7776 -0.6288
vn 0.0000 0.2850 -0.9585
vn 0.5602 0.3027 0.7711
vn 0.3461 0.8083 0.4763
vn -0.0188 0.9995 -0.0259
vn -0.3696 0.7776 -0.5087
vn -0.5634 0.2850 -0.7755
vn 0.9064 0.3027 0.2945
vn 0.5600 0.8083 0.1819
vn -0.0305 0.9995 -0.0099
vn -0.5980 0.7776 -0.1943
vn -0.9116 0.2850 -0.2962
usemtl Material.001
s off
f 16/1/1 7/2/1 6/3/1
f 17/4/2 8/5/2 7/2/2
f 18/6/3 9/7/3 8/5/3
f 19/8/4 10/9/4 9/7/4
f 20/10/5 1/11/5 10/9/5
f 26/12/6 17/4/6 16/1/6
f 27/13/7 18/6/7 17/4/7
f 28/14/8 19/8/8 18/6/8
f 19/8/9 30/15/9 20/10/9
f 20/10/10 21/16/10 11/17/10
f 36/18/11 27/13/11 26/12/11
f 37/19/12 28/14/12 27/13/12
f 38/20/13 29/21/13 28/14/13
f 29/21/14 40/22/14 30/15/14
f 40/22/15 21/16/15 30/15/15
f 46/23/16 37/19/16 36/18/16
f 47/24/17 38/20/17 37/19/17
f 38/20/18 49/25/18 39/26/18
f 39/26/19 50/27/19 40/22/19
f 50/27/20 31/28/20 40/22/20
f 56/29/21 47/30/21 46/31/21
f 57/32/22 48/33/22 47/30/22
f 58/34/23 49/35/23 48/33/23
f 59/36/24 50/37/24 49/35/24
f 60/38/25 41/39/25 50/37/25
f 66/40/26 57/32/26 56/29/26
f 67/41/27 58/34/27 57/32/27
f 68/42/28 59/36/28 58/34/28
f 69/43/29 60/38/29 59/36/29
f 60/38/30 61/44/30 51/45/30
f 76/46/31 67/41/31 66/40/31
f 77/47/32 68/42/32 67/41/32
f 78/48/33 69/43/33 68/42/33
f 79/49/34 70/50/34 69/43/34
f 80/51/35 61/44/35 70/50/35
f 86/52/36 77/47/36 76/46/36
f 87/53/37 78/48/37 77/47/37
f 88/54/38 79/49/38 78/48/38
f 89/55/39 80/51/39 79/49/39
f 90/56/40 71/57/40 80/51/40
f 96/58/41 87/53/41 86/52/41
f 97/59/42 88/54/42 87/53/42
f 98/60/43 89/55/43 88/54/43
f 99/61/44 90/56/44 89/55/44
f 100/62/45 81/63/45 90/56/45
f 6/3/46 97/59/46 96/58/46
f 7/2/47 98/60/47 97/59/47
f 8/5/48 99/61/48 98/60/48
f 9/7/49 100/62/49 99/61/49
f 10/9/50 91/64/50 100/62/50
f 16/1/1 17/4/1 7/2/1
f 17/4/2 18/6/2 8/5/2
f 18/6/3 19/8/3 9/7/3
f 19/8/4 20/10/4 10/9/4
f 20/10/5 11/17/5 1/11/5
f 26/12/6 27/13/6 17/4/6
f 27/13/7 28/14/7 18/6/7
f 28/14/8 29/21/8 19/8/8
f 19/8/9 29/21/9 30/15/9
f 20/10/10 30/15/10 21/16/10
f 36/18/11 37/19/11 27/13/11
f 37/19/12 38/20/12 28/14/12
f 38/20/13 39/26/13 29/21/13
f 29/21/14 39/26/14 40/22/14
f 40/22/15 31/28/15 21/16/15
f 46/23/16 47/24/16 37/19/16
f 47/24/17 48/65/17 38/20/17
f 38/20/18 48/65/18 49/25/18
f 39/26/19 49/25/19 50/27/19
f 50/27/20 41/66/20 31/28/20
f 56/29/21 57/32/21 47/30/21
f 57/32/22 58/34/22 48/33/22
f 58/34/23 59/36/23 49/35/23
f 59/36/24 60/38/24 50/37/24
f 60/38/25 51/45/25 41/39/25
f 66/40/26 67/41/26 57/32/26
f 67/41/27 68/42/27 58/34/27
f 68/42/28 69/43/28 59/36/28
f 69/43/29 70/50/29 60/38/29
f 60/38/30 70/50/30 61/44/30
f 76/46/31 77/47/31 67/41/31
f 77/47/32 78/48/32 68/42/32
f 78/48/33 79/49/33 69/43/33
f 79/49/34 80/51/34 70/50/34
f 80/51/35 71/57/35 61/44/35
f 86/52/36 87/53/36 77/47/36
f 87/53/37 88/54/37 78/48/37
f 88/54/38 89/55/38 79/49/38
f 89/55/39 90/56/39 80/51/39
f 90/56/40 81/63/40 71/57/40
f 96/58/41 97/59/41 87/53/41
f 97/59/42 98/60/42 88/54/42
f 98/60/43 99/61/43 89/55/43
f 99/61/44 100/62/44 90/56/44
f 100/62/45 91/64/45 81/63/45
f 6/3/46 7/2/46 97/59/46
f 7/2/47 8/5/47 98/60/47
f 8/5/48 9/7/48 99/61/48
f 9/7/49 10/9/49 100/62/49
f 10/9/50 1/11/50 91/64/50
usemtl Material.002
f 11/67/51 2/68/51 1/69/51
f 12/70/52 3/71/52 2/68/52
f 13/72/53 4/73/53 3/71/53
f 4/73/54 15/74/54 5/75/54
f 15/74/55 6/76/55 5/75/55
f 21/77/56 12/70/56 11/67/56
f 22/78/57 13/72/57 12/70/57
f 23/79/58 14/80/58 13/72/58
f 24/81/59 15/74/59 14/80/59
f 25/82/60 16/83/60 15/74/60
f 21/77/61 32/84/61 22/78/61
f 32/84/62 23/79/62 22/78/62
f 33/85/63 24/81/63 23/79/63
f 24/81/64 35/86/64 25/82/64
f 35/86/65 26/87/65 25/82/65
f 41/88/66 32/84/66 31/89/66
f 42/90/67 33/85/67 32/84/67
f 33/85/68 44/91/68 34/92/68
f 44/91/69 35/86/69 34/92/69
f 45/93/70 36/94/70 35/86/70
f 51/95/71 42/90/71 41/88/71
f 52/96/72 43/97/72 42/90/72
f 43/97/73 54/98/73 44/91/73
f 54/98/74 45/93/74 44/91/74
f 55/99/75 46/100/75 45/93/75
f 61/101/76 52/96/76 51/95/76
f 62/102/77 53/103/77 52/96/77
f 63/104/78 54/98/78 53/103/78
f 64/105/79 55/99/79 54/98/79
f 65/106/80 56/107/80 55/99/80
f 71/108/81 62/102/81 61/101/81
f 72/109/82 63/104/82 62/102/82
f 73/110/83 64/105/83 63/104/83
f 74/111/84 65/106/84 64/105/84
f 75/112/85 66/113/85 65/106/85
f 71/108/86 82/114/86 72/109/86
f 72/109/87 83/115/87 73/110/87
f 73/110/88 84/116/88 74/111/88
f 74/111/89 85/117/89 75/112/89
f 85/117/90 76/118/90 75/112/90
f 91/119/91 82/114/91 81/120/91
f 92/121/92 83/115/92 82/114/92
f 93/122/93 84/116/93 83/115/93
f 94/123/94 85/117/94 84/116/94
f 95/124/95 86/125/95 85/117/95
f 1/69/96 92/121/96 91/119/96
f 2/68/97 93/122/97 92/121/97
f 3/71/98 94/123/98 93/122/98
f 4/73/99 95/124/99 94/123/99
f 5/75/100 96/126/100 95/124/100
f 11/67/51 12/70/51 2/68/51
f 12/70/52 13/72/52 3/71/52
f 13/72/53 14/80/53 4/73/53
f 4/73/54 14/80/54 15/74/54
f 15/74/55 16/83/55 6/76/55
f 21/77/56 22/78/56 12/70/56
f 22/78/57 23/79/57 13/72/57
f 23/79/58 24/81/58 14/80/58
f 24/81/59 25/82/59 15/74/59
f 25/82/60 26/87/60 16/83/60
f 21/77/61 31/89/61 32/84/61
f 32/84/62 33/85/62 23/79/62
f 33/85/63 34/92/63 24/81/63
f 24/81/64 34/92/64 35/86/64
f 35/86/65 36/94/65 26/87/65
f 41/88/66 42/90/66 32/84/66
f 42/90/67 43/97/67 33/85/67
f 33/85/68 43/97/68 44/91/68
f 44/91/69 45/93/69 35/86/69
f 45/93/70 46/100/70 36/94/70
f 51/95/71 52/96/71 42/90/71
f 52/96/72 53/103/72 43/97/72
f 43/97/73 53/103/73 54/98/73
f 54/98/74 55/99/74 45/93/74
f 55/99/75 56/107/75 46/100/75
f 61/101/76 62/102/76 52/96/76
f 62/102/77 63/104/77 53/103/77
f 63/104/78 64/105/78 54/98/78
f 64/105/79 65/106/79 55/99/79
f 65/106/80 66/113/80 56/107/80
f 71/108/81 72/109/81 62/102/81
f 72/109/82 73/110/82 63/104/82
f 73/110/83 74/111/83 64/105/83
f 74/111/84 75/112/84 65/106/84
f 75/112/85 76/118/85 66/113/85
f 71/108/86 81/120/86 82/114/86
f 72/109/87 82/114/87 83/115/87
f 73/110/88 83/115/88 84/116/88
f 74/111/89 84/116/89 85/117/89
f 85/117/90 86/125/90 76/118/90
f 91/119/91 92/121/91 82/114/91
f 92/121/92 93/122/92 83/115/92
f 93/122/93 94/123/93 84/116/93
f 94/123/94 95/124/94 85/117/94
f 95/124/95 96/126/95 86/125/95
f 1/69/96 2/68/96 92/121/96
f 2/68/97 3/71/97 93/122/97
f 3/71/98 4/73/98 94/123/98
f 4/73/99 5/75/99 95/124/99
f 5/75/100 6/76/100 96/126/100
